<?xml version="1.0" encoding="UTF-8" standalone="no"?>
<!DOCTYPE svg PUBLIC "-//W3C//DTD SVG 1.1//EN" "http://www.w3.org/Graphics/SVG/1.1/DTD/svg11.dtd">
<svg width="100%" height="100%" viewBox="0 0 180 180" version="1.1" xmlns="http://www.w3.org/2000/svg" xmlns:xlink="http://www.w3.org/1999/xlink" xml:space="preserve" xmlns:serif="http://www.serif.com/" style="fill-rule:evenodd;clip-rule:evenodd;stroke-linejoin:round;stroke-miterlimit:2;">
    <g id="_0" serif:id="0">
        <g id="_00" serif:id="00">
            <g transform="matrix(6.7,0,0,1,-462.3,18)">
                <circle cx="74" cy="72" r="5" style="fill:rgb(255,101,0);"/>
            </g>
            <g transform="matrix(1,0,0,6.7,16,-335.9)">
                <circle cx="74" cy="72" r="5" style="fill:rgb(255,101,0);"/>
            </g>
            <g transform="matrix(6.7,0,0,1,-349.3,18)">
                <circle cx="74" cy="72" r="5" style="fill:rgb(255,101,0);"/>
            </g>
            <g transform="matrix(1,0,0,6.7,16,-448.9)">
                <circle cx="74" cy="72" r="5" style="fill:rgb(255,101,0);"/>
            </g>
        </g>
        <g id="_001" serif:id="00" transform="matrix(0.707107,0.707107,-0.707107,0.707107,90,-37.2792)">
            <g transform="matrix(3.35,-1.43896e-16,-1.43896e-16,1,-197.65,18)">
                <circle cx="74" cy="72" r="5" style="fill:rgb(255,101,0);"/>
            </g>
            <g transform="matrix(1,1.43896e-16,1.43896e-16,3.35,16,-111.45)">
                <circle cx="74" cy="72" r="5" style="fill:rgb(255,101,0);"/>
            </g>
            <g transform="matrix(3.35,-1.43896e-16,-1.43896e-16,1,-118.15,18)">
                <circle cx="74" cy="72" r="5" style="fill:rgb(255,101,0);"/>
            </g>
            <g transform="matrix(1,1.43896e-16,1.43896e-16,3.35,16,-190.95)">
                <circle cx="74" cy="72" r="5" style="fill:rgb(255,101,0);"/>
            </g>
        </g>
    </g>
</svg>
