<?xml version="1.0" encoding="UTF-8" standalone="no"?>
<!DOCTYPE svg PUBLIC "-//W3C//DTD SVG 1.1//EN" "http://www.w3.org/Graphics/SVG/1.1/DTD/svg11.dtd">
<svg width="100%" height="100%" viewBox="0 0 180 180" version="1.1" xmlns="http://www.w3.org/2000/svg" xmlns:xlink="http://www.w3.org/1999/xlink" xml:space="preserve" xmlns:serif="http://www.serif.com/" style="fill-rule:evenodd;clip-rule:evenodd;stroke-linecap:round;stroke-linejoin:round;stroke-miterlimit:1.5;">
    <g>
        <g>
            <g transform="matrix(1,0,0,1,-12,18)">
                <circle cx="74" cy="72" r="5" style="fill:rgb(255,101,0);"/>
            </g>
            <g transform="matrix(1,0,0,1,16,46)">
                <circle cx="74" cy="72" r="5" style="fill:rgb(255,101,0);"/>
            </g>
            <g transform="matrix(1,0,0,1,44,18)">
                <circle cx="74" cy="72" r="5" style="fill:rgb(255,101,0);"/>
            </g>
            <g transform="matrix(1,0,0,1,16,-10)">
                <circle cx="74" cy="72" r="5" style="fill:rgb(255,101,0);"/>
            </g>
        </g>
        <g transform="matrix(0.707107,0.707107,-0.707107,0.707107,90,-37.2792)">
            <g transform="matrix(1,0,0,1,-12,18)">
                <circle cx="74" cy="72" r="5" style="fill:rgb(255,101,0);"/>
            </g>
            <g transform="matrix(1,0,0,1,16,46)">
                <circle cx="74" cy="72" r="5" style="fill:rgb(255,101,0);"/>
            </g>
            <g transform="matrix(1,0,0,1,44,18)">
                <circle cx="74" cy="72" r="5" style="fill:rgb(255,101,0);"/>
            </g>
            <g transform="matrix(1,0,0,1,16,-10)">
                <circle cx="74" cy="72" r="5" style="fill:rgb(255,101,0);"/>
            </g>
        </g>
    </g>
</svg>
